<svg xmlns="http://www.w3.org/2000/svg" viewBox="0 0 512 512">
	<path d="m86.972 86.972h54.444v-70.972c0-4.418 3.582-8 8-8s8 3.582 8 8v70.972h55.056v-70.972c0-4.418 3.582-8 8-8s8 3.582 8 8v70.972h55.056v-70.972c0-4.418 3.582-8 8-8s8 3.582 8 8v70.972h55.056v-70.972c0-4.418 3.582-8 8-8s8 3.582 8 8v70.972h54.444v54.444h70.972c4.418 0 8 3.582 8 8s-3.582 8-8 8h-70.972v55.057h70.972c4.418 0 8 3.582 8 8s-3.582 8-8 8h-70.972v55.056h70.972c4.418 0 8 3.582 8 8s-3.582 8-8 8h-70.972v55.056h70.972c4.418 0 8 3.582 8 8s-3.582 8-8 8h-70.972v54.444h-54.444v70.971c0 4.418-3.582 8-8 8s-8-3.582-8-8v-70.972h-55.056v70.972c0 4.418-3.582 8-8 8s-8-3.582-8-8v-70.972h-55.056v70.972c0 4.418-3.582 8-8 8s-8-3.582-8-8v-70.972h-55.056v70.972c0 4.418-3.582 8-8 8s-8-3.582-8-8v-70.972h-8.93l-45.514-45.514v-8.93h-70.972c-4.418 0-8-3.582-8-8s3.582-8 8-8h70.972v-55.056h-70.972c-4.418 0-8-3.582-8-8s3.582-8 8-8h70.972v-55.056h-70.972c-4.418 0-8-3.582-8-8s3.582-8 8-8h70.972v-55.057h-70.972c-4.418 0-8-3.582-8-8s3.582-8 8-8h70.972zm43.498 43.498v231.028l20.033 20.033h231.027v-251.061zm-16 234.34c0 2.231.913 4.247 2.386 5.698l24.678 24.678c1.562 1.562 3.609 2.343 5.656 2.344h242.34c4.418 0 8-3.582 8-8v-267.06c0-4.418-3.582-8-8-8h-267.06c-4.418 0-8 3.582-8 8z"/>
	<style>
		@media (prefers-color-scheme: dark) {
			path { fill: #ffffff; }
		}
	</style>
</svg>
